<svg width="78" height="78" viewBox="0 0 78 78" fill="none" xmlns="http://www.w3.org/2000/svg">
<path d="M54.6 14.3002C54.6854 14.3002 54.7697 14.2919 54.8536 14.2754C54.9371 14.2588 55.0184 14.234 55.0974 14.2013C55.1761 14.1689 55.2514 14.1286 55.3221 14.0812C55.3932 14.0338 55.4587 13.98 55.5193 13.9198C55.5795 13.8592 55.6333 13.7937 55.6807 13.7226C55.7281 13.6515 55.7684 13.5766 55.8008 13.4979C55.8335 13.4189 55.8583 13.3376 55.8749 13.2541C55.8915 13.1702 55.8997 13.0859 55.8997 13.0004V9.10032C55.8997 9.0149 55.8915 8.93061 55.8749 8.84669C55.8583 8.76315 55.8335 8.68186 55.8008 8.60284C55.7684 8.52419 55.7281 8.44893 55.6807 8.37818C55.6333 8.30706 55.5795 8.24158 55.5193 8.18099C55.4587 8.12078 55.3932 8.06697 55.3221 8.01955C55.2514 7.97214 55.1761 7.93187 55.0974 7.89951C55.0184 7.86677 54.9371 7.84193 54.8536 7.82537C54.7697 7.80882 54.6854 7.80054 54.6 7.80054C54.5145 7.80054 54.4299 7.80882 54.3463 7.82537C54.2624 7.84193 54.1811 7.86677 54.1025 7.89951C54.0235 7.93187 53.9486 7.97214 53.8778 8.01955C53.8067 8.06697 53.7412 8.12078 53.6806 8.18099C53.6204 8.24158 53.5666 8.30706 53.5192 8.37818C53.4714 8.44893 53.4315 8.52419 53.3988 8.60284C53.366 8.68186 53.3416 8.76315 53.325 8.84669C53.3081 8.93061 53.2998 9.0149 53.2998 9.10032V13.0004C53.2998 13.0859 53.3081 13.1702 53.325 13.2541C53.3416 13.3376 53.366 13.4189 53.3988 13.4979C53.4315 13.5766 53.4714 13.6515 53.5192 13.7226C53.5666 13.7937 53.6204 13.8592 53.6806 13.9198C53.7412 13.98 53.8067 14.0338 53.8778 14.0812C53.9486 14.1286 54.0235 14.1689 54.1025 14.2013C54.1811 14.234 54.2624 14.2588 54.3463 14.2754C54.4299 14.2919 54.5145 14.3002 54.6 14.3002Z" fill="#FDF6ED"/>
<path d="M48.5602 14.648C48.62 14.7112 48.6855 14.7673 48.7566 14.8174C48.8274 14.867 48.9027 14.9092 48.9824 14.9442C49.0618 14.9788 49.1439 15.0051 49.2289 15.0236C49.3136 15.042 49.3994 15.0514 49.4859 15.0526C49.5729 15.0537 49.6587 15.0462 49.7441 15.0303C49.8295 15.0142 49.9123 14.9897 49.9925 14.957C50.073 14.9242 50.1494 14.884 50.2216 14.8362C50.2939 14.788 50.3605 14.7334 50.4218 14.6721C50.4832 14.6108 50.5381 14.5438 50.5859 14.4715C50.6341 14.3993 50.6743 14.3229 50.7071 14.2427C50.7394 14.1622 50.7639 14.0794 50.7801 13.994C50.7963 13.9089 50.8038 13.8228 50.8027 13.7362C50.8015 13.6493 50.7917 13.5635 50.7737 13.4788C50.7552 13.3941 50.7289 13.3117 50.6939 13.2323C50.6593 13.1529 50.6171 13.0777 50.5671 13.0065C50.5174 12.9354 50.461 12.8699 50.3981 12.8105L47.6356 10.048C47.5758 9.98474 47.5103 9.92867 47.4396 9.87862C47.3684 9.82894 47.2932 9.7868 47.2138 9.7518C47.134 9.71718 47.052 9.69084 46.9673 9.6724C46.8822 9.65396 46.7964 9.64455 46.7099 9.64342C46.623 9.64229 46.5372 9.64982 46.4517 9.666C46.3667 9.6818 46.2839 9.70627 46.2034 9.739C46.1228 9.77174 46.0468 9.81201 45.9746 9.86018C45.902 9.90797 45.8353 9.96253 45.774 10.0239C45.7127 10.0852 45.6581 10.1522 45.6099 10.2244C45.5621 10.2967 45.5215 10.3731 45.4891 10.4532C45.4564 10.5338 45.4319 10.6166 45.4158 10.702C45.3996 10.787 45.392 10.8732 45.3932 10.9598C45.3943 11.0467 45.4041 11.1325 45.4225 11.2172C45.4406 11.3018 45.4673 11.3842 45.5019 11.4636C45.5366 11.5431 45.5791 11.6183 45.6287 11.6894C45.6784 11.7606 45.7349 11.826 45.7977 11.8859L48.5602 14.648Z" fill="#FDF6ED"/>
<path d="M59.7224 15.0285C59.8943 15.0285 60.0599 14.9954 60.2191 14.9295C60.3783 14.8636 60.5186 14.7699 60.6406 14.648L63.4031 11.8859C63.4659 11.826 63.522 11.7606 63.572 11.6894C63.6217 11.6183 63.6639 11.5431 63.6989 11.4636C63.7335 11.3842 63.7602 11.3018 63.7783 11.2172C63.7967 11.1325 63.8065 11.0467 63.8072 10.9598C63.8084 10.8732 63.8008 10.787 63.785 10.702C63.7688 10.6166 63.7444 10.5338 63.7116 10.4532C63.6789 10.3731 63.6386 10.2967 63.5909 10.2244C63.5427 10.1522 63.4881 10.0852 63.4268 10.0239C63.3654 9.96253 63.2985 9.90797 63.2262 9.86018C63.154 9.81201 63.0776 9.77174 62.9974 9.739C62.9169 9.70627 62.8341 9.6818 62.749 9.666C62.6636 9.64982 62.5774 9.64229 62.4909 9.64342C62.404 9.64455 62.3182 9.65396 62.2335 9.6724C62.1488 9.69084 62.0664 9.71718 61.987 9.7518C61.9076 9.7868 61.8323 9.82894 61.7612 9.87862C61.6901 9.92867 61.6246 9.98474 61.5652 10.048L58.8027 12.8105C58.712 12.9012 58.6363 13.0035 58.5757 13.1168C58.5155 13.2301 58.4726 13.3497 58.4478 13.4758C58.4226 13.6019 58.4166 13.7287 58.4294 13.8566C58.4418 13.9846 58.473 14.1076 58.5219 14.2265C58.5712 14.3451 58.6367 14.4538 58.718 14.5532C58.7997 14.6525 58.8937 14.738 59.0006 14.8095C59.1075 14.8806 59.2223 14.9351 59.3453 14.9724C59.468 15.0097 59.5937 15.0285 59.7224 15.0285Z" fill="#FDF6ED"/>
<path d="M54.6002 0C53.8032 0.000376289 53.008 0.0413944 52.2151 0.123431C51.4222 0.205091 50.6354 0.327393 49.8549 0.489584C49.0748 0.652151 48.3045 0.854232 47.5451 1.09545C46.7853 1.33704 46.0399 1.61664 45.3091 1.93425C44.5779 2.25224 43.8652 2.60672 43.1705 2.99771C42.4754 3.38833 41.8026 3.81394 41.1516 4.27379C40.5005 4.73365 39.8747 5.22587 39.2742 5.74969C38.6736 6.2739 38.1012 6.82746 37.5574 7.40999C35.0425 6.78907 32.4904 6.48576 29.9002 6.50006C16.0554 6.50006 5.09641 15.8082 2.6135 29.6919L0.0135645 45.292C-0.0131536 45.4809 -0.000359068 45.6668 0.051572 45.85C0.103503 46.0337 0.190431 46.1985 0.312356 46.3449C0.373695 46.416 0.442183 46.4796 0.517069 46.5361C0.591955 46.5925 0.67211 46.6403 0.757156 46.6794C0.842579 46.7186 0.931012 46.7483 1.02246 46.7686C1.1139 46.7889 1.20685 46.7995 1.30055 46.7999H7.80058V63.7001C7.80058 63.7851 7.80886 63.8698 7.82542 63.9537C7.84197 64.0373 7.86681 64.1186 7.89955 64.1976C7.93191 64.2762 7.97218 64.3511 8.01959 64.4222C8.06701 64.493 8.12082 64.5588 8.18141 64.619C8.24162 64.6796 8.3071 64.7334 8.37822 64.7809C8.44934 64.8283 8.52423 64.8682 8.60288 64.9009C8.6819 64.9336 8.76319 64.9585 8.84673 64.975C8.93064 64.9916 9.01494 64.9999 9.10036 64.9999H28.6004V76.6998C28.6004 76.7853 28.6087 76.8699 28.6253 76.9535C28.6418 77.0374 28.6667 77.1187 28.6994 77.1973C28.7318 77.2764 28.772 77.3512 28.8195 77.422C28.8669 77.4931 28.9207 77.559 28.9809 77.6192C29.0415 77.6794 29.107 77.7336 29.1781 77.781C29.2492 77.8284 29.3241 77.8683 29.4027 77.901C29.4818 77.9338 29.5631 77.9582 29.6466 77.9748C29.7305 77.9917 29.8148 78 29.9002 78H54.6002C54.6856 78 54.7699 77.9917 54.8538 77.9748C54.9374 77.9582 55.0187 77.9338 55.0977 77.901C55.1763 77.8683 55.2516 77.8284 55.3223 77.781C55.3935 77.7336 55.4589 77.6794 55.5195 77.6192C55.5797 77.559 55.6335 77.4931 55.681 77.422C55.7284 77.3512 55.7686 77.2764 55.801 77.1973C55.8337 77.1187 55.8586 77.0374 55.8751 76.9535C55.8917 76.8699 55.9 76.7853 55.9 76.6998V46.7351C68.1982 46.0589 78 35.8672 78 23.3999C78 10.4909 67.5092 0 54.6002 0ZM19.5005 58.4998C19.4151 58.4998 19.3304 58.4915 19.2468 58.475C19.1629 58.4584 19.0816 58.4336 19.003 58.4008C18.924 58.3685 18.8491 58.3282 18.7783 58.2808C18.7072 58.2334 18.6414 58.1796 18.5812 58.1194C18.5209 58.0588 18.4668 57.9933 18.4193 57.9222C18.3719 57.851 18.332 57.7762 18.2993 57.6975C18.2666 57.6185 18.2421 57.5372 18.2255 57.4537C18.2086 57.3697 18.2003 57.2854 18.2003 57.2C18.2003 53.8068 13.3124 53.2999 10.4005 53.2999V50.7C19.7865 50.7 20.8003 55.25 20.8003 57.2C20.8003 57.2854 20.792 57.3697 20.7754 57.4537C20.7589 57.5372 20.734 57.6185 20.7013 57.6975C20.6689 57.7762 20.6287 57.851 20.5812 57.9222C20.5338 57.9933 20.48 58.0588 20.4198 58.1194C20.3592 58.1796 20.2937 58.2334 20.2226 58.2808C20.1515 58.3282 20.0766 58.3685 19.998 58.4008C19.9189 58.4336 19.8377 58.4584 19.7541 58.475C19.6702 58.4915 19.5859 58.4998 19.5005 58.4998ZM22.1004 37.6998H13.0005C12.915 37.6998 12.8304 37.6916 12.7468 37.675C12.6633 37.6584 12.582 37.6336 12.503 37.6009C12.4239 37.5685 12.3491 37.5282 12.2783 37.4808C12.2072 37.4334 12.1417 37.3796 12.0811 37.3194C12.0209 37.2588 11.9671 37.1933 11.9197 37.1222C11.8723 37.0514 11.832 36.9762 11.7993 36.8975C11.7669 36.8185 11.7421 36.7372 11.7255 36.6537C11.709 36.5698 11.7003 36.4855 11.7003 36.4001C11.7003 36.3146 11.709 36.23 11.7255 36.1464C11.7421 36.0625 11.7669 35.9812 11.7993 35.9026C11.832 35.8235 11.8723 35.7487 11.9197 35.6779C11.9671 35.6068 12.0209 35.5413 12.0811 35.4807C12.1417 35.4205 12.2072 35.3667 12.2783 35.3193C12.3491 35.2715 12.4239 35.2316 12.503 35.1989C12.582 35.1661 12.6633 35.1417 12.7468 35.1251C12.8304 35.1082 12.915 35.0999 13.0005 35.0999H22.1004C22.1858 35.0999 22.2701 35.1082 22.3541 35.1251C22.4376 35.1417 22.5189 35.1661 22.5979 35.1989C22.6766 35.2316 22.7518 35.2715 22.8226 35.3193C22.8937 35.3667 22.9592 35.4205 23.0197 35.4807C23.08 35.5413 23.1338 35.6068 23.1812 35.6779C23.2286 35.7487 23.2689 35.8235 23.3012 35.9026C23.334 35.9812 23.3588 36.0625 23.3754 36.1464C23.3919 36.23 23.4002 36.3146 23.4002 36.4001C23.4002 36.4855 23.3919 36.5698 23.3754 36.6537C23.3588 36.7372 23.334 36.8185 23.3012 36.8975C23.2689 36.9762 23.2286 37.0514 23.1812 37.1222C23.1338 37.1933 23.08 37.2588 23.0197 37.3194C22.9592 37.3796 22.8937 37.4334 22.8226 37.4808C22.7518 37.5282 22.6766 37.5685 22.5979 37.6009C22.5189 37.6336 22.4376 37.6584 22.3541 37.675C22.2701 37.6916 22.1858 37.6998 22.1004 37.6998ZM54.6002 44.1999C43.1344 44.1999 33.8003 34.8658 33.8003 23.3999C33.8003 11.934 43.1344 2.59995 54.6002 2.59995C66.066 2.59995 75.4001 11.934 75.4001 23.3999C75.4001 34.8658 66.066 44.1999 54.6002 44.1999Z" fill="#FDF6ED"/>
<path d="M65.9624 22.1001C66.6514 20.5399 66.1054 18.8111 65.0393 17.7578C63.7264 16.458 61.4903 16.0418 59.7615 17.745L54.6004 23.3871L49.4393 17.745C47.7105 16.0418 45.4745 16.458 44.1615 17.7578C43.0954 18.8111 42.5494 20.5399 43.2384 22.1001H40.8726C38.4025 22.1648 37.0244 24.1021 37.0244 25.9871C37.0244 27.872 38.4025 29.8349 40.8985 29.9H43.2516C43.1752 30.0825 43.1131 30.2695 43.065 30.4614C43.0168 30.653 42.9833 30.8475 42.9641 31.0443C42.9453 31.2411 42.9408 31.438 42.9513 31.6355C42.9619 31.8331 42.9871 32.0284 43.0266 32.2222C43.0665 32.416 43.1207 32.6057 43.1888 32.7912C43.2569 32.9767 43.3385 33.1562 43.4334 33.3297C43.5286 33.5028 43.6362 33.6684 43.7559 33.8257C43.8755 33.983 44.0065 34.1305 44.1484 34.2678C45.5524 35.7306 48.0876 35.7306 49.4653 34.2419L54.6004 28.587L59.7352 34.2419C61.1132 35.7242 63.6485 35.737 65.0525 34.2678C65.1943 34.1305 65.3249 33.983 65.445 33.8257C65.5646 33.6684 65.6723 33.5028 65.7671 33.3297C65.8623 33.1562 65.944 32.9767 66.0121 32.7912C66.0802 32.6057 66.1344 32.416 66.1739 32.2222C66.2138 32.0284 66.239 31.8331 66.2495 31.6355C66.2601 31.438 66.2555 31.2411 66.2367 31.0443C66.2175 30.8475 66.184 30.653 66.1359 30.4614C66.0877 30.2695 66.0256 30.0825 65.9492 29.9H68.3023C70.7984 29.8349 72.1764 27.8852 72.1764 25.9871C72.1764 24.0889 70.7984 22.1648 68.3283 22.1001H65.9624Z" fill="#FDF6ED"/>
</svg>
