<svg width="47" height="47" viewBox="0 0 47 47" fill="none" xmlns="http://www.w3.org/2000/svg">
<path d="M16.6927 3.13966C16.7095 3.13967 16.7262 3.13969 16.7435 3.1397C17.8018 3.14205 18.7844 3.38819 19.7822 3.71769C19.8108 3.7271 19.8393 3.7365 19.8687 3.74619C20.5829 3.98341 21.282 4.26159 21.9811 4.53938C23.0498 4.964 24.1186 5.35237 25.2169 5.69408C25.353 5.73653 25.4889 5.77961 25.6242 5.82454C26.0134 5.95365 26.4059 6.05631 26.8047 6.15031C26.8314 6.15673 26.8581 6.16315 26.8856 6.16976C27.188 6.24221 27.4918 6.30267 27.7987 6.35255C27.8271 6.3573 27.8555 6.36206 27.8847 6.36695C28.3123 6.43322 28.739 6.42921 29.1699 6.40705C29.2162 6.40487 29.2624 6.40271 29.3087 6.40057C29.5203 6.3906 29.7319 6.37937 29.9434 6.36644C30.6542 6.32327 31.3744 6.29378 32.083 6.3798C32.1005 6.38192 32.118 6.38404 32.136 6.38622C33.4354 6.5449 34.8581 6.72301 35.8467 7.66496C35.8653 7.68263 35.8653 7.68263 35.8843 7.70066C36.1845 7.98756 36.416 8.29483 36.627 8.65177C36.6415 8.67632 36.6415 8.67632 36.6564 8.70137C37.1368 9.51827 37.4239 10.5062 37.2039 11.4524C37.0869 11.8624 36.8817 12.2581 36.627 12.599C36.6167 12.6128 36.6064 12.6266 36.5957 12.6409C36.4127 12.8838 36.2205 13.1172 35.9844 13.3105C35.9722 13.3206 35.9601 13.3307 35.9476 13.3411C35.6245 13.6103 35.2781 13.8065 34.9058 13.9989C34.9168 14.3901 34.9291 14.7811 34.9444 15.1721C34.9451 15.1898 34.9458 15.2075 34.9465 15.2257C34.9493 15.2988 34.9522 15.372 34.9551 15.4452C34.9921 16.3934 35.0202 17.3418 35.0435 18.2904C35.0576 18.2865 35.0717 18.2825 35.0863 18.2785C35.1514 18.2603 35.2167 18.2422 35.2819 18.2242C35.3041 18.218 35.3263 18.2118 35.3492 18.2054C35.5515 18.1496 35.7537 18.1123 35.9614 18.0839C35.9925 18.0794 35.9925 18.0794 36.0243 18.0748C36.5844 18.0051 37.1395 18.089 37.5937 18.4396C37.9486 18.7471 38.0768 19.1896 38.1187 19.6445C38.1301 19.8603 38.1288 20.0764 38.1275 20.2925C38.1273 20.3407 38.1271 20.389 38.127 20.4373C38.1253 20.9302 38.1098 21.419 38.0556 21.9092C38.0495 21.9652 38.0437 22.0211 38.0379 22.0771C37.6196 26.1023 37.6196 26.1023 36.8105 27.0341C36.793 27.0573 36.7755 27.0805 36.7575 27.1044C36.411 27.4831 35.9061 27.6648 35.4035 27.6939C35.0378 27.7095 34.705 27.6653 34.347 27.5885C34.2427 27.5663 34.1397 27.5502 34.0337 27.539C34.0275 27.5524 34.0213 27.5659 34.0149 27.5798C33.6475 28.3728 33.1847 29.105 32.6108 29.7651C32.5971 29.7811 32.5833 29.7972 32.5691 29.8138C32.3791 30.0341 32.1792 30.2447 31.974 30.4507C31.95 30.4748 31.95 30.4748 31.9256 30.4994C31.8211 30.6036 31.7129 30.7017 31.6011 30.7978C31.5737 30.8218 31.5464 30.8458 31.5191 30.8698C31.3295 31.0361 31.1361 31.1956 30.9355 31.3486C30.9181 31.3619 30.9007 31.3752 30.8827 31.3889C30.6434 31.5713 30.4017 31.7488 30.1518 31.9164C30.1109 31.9442 30.0706 31.9726 30.0303 32.0013C29.6118 32.2955 29.1443 32.509 28.6636 32.6796C28.6443 32.6865 28.625 32.6933 28.6051 32.7004C28.466 32.7485 28.466 32.7485 28.3882 32.7485C28.3918 32.7614 28.3955 32.7743 28.3993 32.7876C28.4116 32.8423 28.4155 32.8925 28.4176 32.9485C28.4189 32.9806 28.4189 32.9806 28.4201 33.0133C28.421 33.0363 28.4218 33.0593 28.4226 33.0829C28.4235 33.1068 28.4245 33.1306 28.4254 33.1551C28.4284 33.2314 28.4313 33.3076 28.4341 33.3839C28.4369 33.4597 28.4398 33.5355 28.4427 33.6114C28.4446 33.6585 28.4463 33.7057 28.448 33.7528C28.4532 33.8857 28.4637 34.0164 28.48 34.1484C28.4955 34.1489 28.5111 34.1495 28.5271 34.1502C28.7683 34.1648 28.9367 34.2297 29.1201 34.3874C29.2874 34.5927 29.3564 34.8715 29.4424 35.118C29.458 35.1623 29.4736 35.2067 29.4893 35.2511C29.5147 35.3232 29.5401 35.3953 29.5654 35.4675C29.6324 35.6581 29.6999 35.8486 29.7677 36.0389C29.7851 36.0876 29.8024 36.1363 29.8197 36.185C29.8254 36.201 29.8312 36.217 29.837 36.2336C29.8427 36.2496 29.8484 36.2656 29.8543 36.2821C29.8885 36.3782 29.9227 36.4743 29.957 36.5704C29.984 36.6464 30.0111 36.7224 30.0381 36.7984C30.0528 36.8399 30.0676 36.8815 30.0825 36.923C30.1259 37.0453 30.1677 37.167 30.2012 37.2924C30.2295 37.2952 30.2579 37.2981 30.2871 37.301C30.642 37.3391 30.9936 37.3943 31.3458 37.4516C31.3698 37.4555 31.3938 37.4594 31.4185 37.4634C31.9517 37.5497 32.4443 37.6391 32.9321 37.8805C32.9617 37.8949 32.9912 37.9094 33.0207 37.9239C33.0792 37.9525 33.1377 37.9813 33.1962 38.0102C33.2647 38.044 33.3335 38.0774 33.4023 38.1105C33.6845 38.2473 33.9541 38.4031 34.2235 38.5634C34.278 38.5957 34.3327 38.6276 34.3876 38.6591C34.8673 38.9356 35.3267 39.2439 35.7778 39.5644C35.7964 39.5775 35.815 39.5907 35.8342 39.6043C36.2112 39.8715 36.5736 40.1565 36.9309 40.4494C36.9678 40.4796 37.005 40.5096 37.0421 40.5396C37.1646 40.6388 37.2833 40.7409 37.3998 40.847C37.4467 40.8896 37.4942 40.9314 37.5421 40.9729C37.783 41.1835 38.0119 41.4047 38.2378 41.6312C38.2867 41.6803 38.3357 41.7291 38.3848 41.778C38.4165 41.8097 38.4482 41.8415 38.4798 41.8732C38.4942 41.8875 38.5086 41.9018 38.5234 41.9166C38.5958 41.9894 38.6667 42.0635 38.7358 42.1396C38.7489 42.154 38.7621 42.1684 38.7756 42.1833C38.8088 42.2288 38.8205 42.2632 38.8301 42.3183C38.6487 42.2956 38.4926 42.1816 38.3424 42.0845C37.8323 41.7588 37.3106 41.4522 36.7876 41.1479C36.7668 41.1357 36.746 41.1236 36.7246 41.1111C36.6005 41.0388 36.4762 40.9669 36.3516 40.8954C36.3318 40.8841 36.312 40.8728 36.2916 40.8611C35.9644 40.6739 35.6344 40.4925 35.3016 40.3154C35.2526 40.2894 35.2037 40.2633 35.1548 40.237C33.8323 39.5287 32.4461 39.2287 30.9771 38.9892C30.9341 38.9821 30.9341 38.9821 30.8902 38.9749C30.8085 38.9615 30.7267 38.9483 30.6448 38.9353C30.6079 38.9293 30.6079 38.9293 30.5703 38.923C30.5475 38.9195 30.5247 38.9159 30.5012 38.9123C30.4814 38.9091 30.4616 38.906 30.4412 38.9027C30.3424 38.896 30.2674 38.9169 30.1856 38.9712C30.1624 38.9864 30.1624 38.9864 30.1387 39.0019C30.1224 39.0128 30.1061 39.0238 30.0893 39.0351C30.0721 39.0465 30.0548 39.0579 30.0371 39.0696C29.9846 39.1043 29.9322 39.1393 29.8799 39.1742C29.851 39.1933 29.822 39.2124 29.7931 39.2315C29.4272 39.4733 29.0666 39.7229 28.7095 39.9775C28.6928 39.9893 28.6762 40.0011 28.659 40.0133C28.4116 40.1893 28.1698 40.3715 27.9313 40.5594C27.886 40.595 27.8405 40.6302 27.7948 40.6654C27.648 40.7788 27.5072 40.8954 27.3714 41.022C27.3247 41.0651 27.2775 41.1064 27.2292 41.1476C27.1024 41.2581 26.9846 41.3776 26.866 41.4966C26.8263 41.5365 26.7864 41.5762 26.7466 41.616C26.6288 41.7336 26.5128 41.8514 26.4047 41.9781C26.3241 42.0715 26.2379 42.1599 26.1531 42.2494C26.0667 42.341 25.9825 42.4341 25.8999 42.5291C25.8541 42.5818 25.8074 42.6337 25.7605 42.6855C25.6499 42.8082 25.5407 42.932 25.4335 43.0578C25.3247 43.1853 25.2157 43.3122 25.1021 43.4356C25.0093 43.5368 24.9223 43.6415 24.8361 43.7483C24.7858 43.8092 24.7337 43.8678 24.6805 43.9262C24.5982 44.0164 24.5217 44.1097 24.4461 44.2056C24.3852 44.2812 24.3222 44.3547 24.2588 44.4282C24.1583 44.5447 24.0595 44.6623 23.9626 44.7817C23.9105 44.8458 23.858 44.9095 23.8055 44.9732C23.7329 45.0616 23.6639 45.1514 23.5984 45.2452C23.5688 45.2787 23.5688 45.2787 23.5 45.3017C23.3934 45.2263 23.3181 45.1373 23.2404 45.0335C23.1489 44.914 23.0534 44.8008 22.9515 44.6899C22.888 44.6191 22.8297 44.5447 22.7708 44.47C22.6984 44.3802 22.623 44.2932 22.5476 44.2059C22.476 44.1228 22.4058 44.0387 22.3368 43.9534C22.2552 43.8529 22.1698 43.7569 22.0826 43.6613C22.0306 43.6027 21.9813 43.5426 21.9323 43.4815C21.831 43.3563 21.7227 43.2389 21.613 43.1211C21.5155 43.0165 21.4221 42.9087 21.3299 42.7994C21.1883 42.6321 21.0426 42.4698 20.8916 42.311C20.808 42.223 20.7271 42.1333 20.6475 42.0417C20.4385 41.8028 20.2143 41.5776 19.9902 41.353C19.979 41.3417 19.9677 41.3304 19.9561 41.3187C19.7715 41.1333 19.5797 40.961 19.3763 40.7965C19.3603 40.7835 19.3444 40.7706 19.3279 40.7573C19.06 40.541 18.7841 40.3357 18.5062 40.1325C18.471 40.1067 18.4357 40.0809 18.4005 40.055C18.0265 39.7804 17.6418 39.5214 17.2555 39.2644C17.2124 39.2357 17.1692 39.2069 17.1261 39.1781C17.0674 39.1389 17.0084 39.0999 16.9494 39.0609C16.9297 39.0477 16.9101 39.0345 16.8898 39.0209C16.8707 39.0083 16.8516 38.9958 16.8319 38.9828C16.815 38.9716 16.7982 38.9604 16.7808 38.9489C16.686 38.8984 16.6033 38.8956 16.4988 38.9123C16.4646 38.9176 16.4646 38.9176 16.4297 38.923C16.4051 38.9271 16.3805 38.9312 16.3552 38.9353C16.3293 38.9394 16.3034 38.9436 16.2768 38.9478C16.1921 38.9614 16.1075 38.9753 16.0229 38.9892C15.994 38.9939 15.965 38.9986 15.9353 39.0035C15.4251 39.0868 14.9169 39.1773 14.4121 39.289C14.388 39.2943 14.388 39.2943 14.3634 39.2997C13.5596 39.4781 12.8063 39.7444 12.0713 40.1152C12.046 40.1278 12.0207 40.1405 11.9947 40.1536C11.7095 40.2972 11.431 40.4522 11.1538 40.6104C11.031 40.6804 10.9074 40.7489 10.7837 40.8172C10.4211 41.0174 10.0649 41.227 9.70994 41.4403C9.6865 41.4544 9.6865 41.4544 9.66259 41.4687C9.58496 41.5154 9.50736 41.562 9.42981 41.6088C9.40136 41.6259 9.37291 41.6431 9.34446 41.6602C9.31931 41.6754 9.29416 41.6905 9.26825 41.7062C9.21645 41.7365 9.16496 41.7646 9.11084 41.7904C9.14547 41.7092 9.1928 41.657 9.25517 41.5949C9.28477 41.5654 9.28477 41.5654 9.31496 41.5353C9.33564 41.5149 9.35632 41.4945 9.37762 41.4735C9.39777 41.4533 9.41792 41.4332 9.43867 41.4125C9.54319 41.3086 9.64935 41.2083 9.76107 41.1123C9.80665 41.0726 9.84915 41.0307 9.89111 40.9872C9.9634 40.914 10.0383 40.8456 10.1163 40.7785C10.1747 40.7277 10.2315 40.6753 10.2884 40.6229C10.3908 40.5295 10.4961 40.441 10.604 40.354C10.6797 40.2919 10.7537 40.228 10.8277 40.1639C10.946 40.0618 11.0667 39.9636 11.1901 39.8678C11.2949 39.7863 11.3978 39.7029 11.5004 39.6189C11.6241 39.5179 11.7492 39.4198 11.8777 39.3248C11.9413 39.2777 12.0042 39.2296 12.067 39.1814C12.3019 39.001 12.5387 38.8251 12.7819 38.6561C12.8285 38.6235 12.8748 38.5905 12.9209 38.5574C13.1708 38.3784 13.4267 38.2096 13.6853 38.0435C13.7403 38.0079 13.7947 37.9716 13.849 37.935C13.8794 37.9149 13.9098 37.8948 13.9402 37.8747C13.9653 37.8579 13.9903 37.841 14.0161 37.8236C14.3134 37.6577 14.6788 37.6166 15.0088 37.5592C15.0333 37.5548 15.0578 37.5505 15.083 37.546C15.5615 37.4612 16.0415 37.3883 16.5226 37.3203C16.5427 37.3174 16.5628 37.3146 16.5835 37.3116C16.6558 37.3016 16.7257 37.2924 16.7988 37.2924C16.8028 37.2787 16.8068 37.2651 16.8108 37.251C16.8544 37.1031 16.9031 36.9575 16.9545 36.8122C16.9629 36.7883 16.9713 36.7644 16.9799 36.7397C17.0075 36.6615 17.0351 36.5832 17.0627 36.505C17.0722 36.4781 17.0817 36.4512 17.0915 36.4235C17.1314 36.3107 17.1712 36.198 17.2112 36.0852C17.2727 35.9115 17.3339 35.7378 17.3948 35.5639C17.4337 35.4528 17.4729 35.3418 17.5122 35.2308C17.5309 35.1779 17.5494 35.125 17.5679 35.0721C17.5937 34.9979 17.6199 34.924 17.6462 34.85C17.6537 34.8284 17.6611 34.8068 17.6688 34.7845C17.7508 34.5566 17.8716 34.3521 18.0904 34.2351C18.2776 34.1522 18.4573 34.1353 18.6577 34.1713C18.6729 34.1562 18.688 34.141 18.7036 34.1254C18.7036 34.1481 18.7036 34.1708 18.7036 34.1943C18.7175 34.1982 18.7314 34.2021 18.7457 34.2061C19.0636 34.298 19.2645 34.3843 19.4438 34.671C19.5135 34.7998 19.5533 34.9368 19.5958 35.0764C19.6152 35.1377 19.6351 35.199 19.6551 35.2601C19.66 35.2751 19.6649 35.2901 19.67 35.3056C19.8191 35.7561 20.0612 36.3592 20.4965 36.5968C21.3136 36.9818 22.3151 37.0794 23.1976 37.2158C23.2419 37.2227 23.2862 37.2299 23.3304 37.2372C23.501 37.2576 23.6559 37.2406 23.8242 37.2128C23.8465 37.2092 23.8688 37.2056 23.8918 37.202C23.9644 37.1902 24.037 37.1782 24.1096 37.1662C24.147 37.16 24.147 37.16 24.1851 37.1537C25.6492 36.9958 25.6492 36.9958 26.8469 36.2873C26.9608 36.1185 27.0579 35.9369 27.1489 35.7548C27.1352 35.7539 27.1214 35.753 27.1073 35.752C25.0673 35.6137 23.2356 35.1781 21.4004 34.2687C21.3392 34.2384 21.2779 34.2082 21.2166 34.178C21.1055 34.1232 20.9944 34.0682 20.8834 34.0131C20.8406 33.9919 20.7978 33.9707 20.755 33.9495C20.358 33.7533 19.9686 33.543 19.5986 33.2992C19.6001 33.3126 19.6017 33.3261 19.6032 33.3399C19.6197 33.4934 19.6281 33.6464 19.6339 33.8007C19.6353 33.8385 19.6353 33.8385 19.6369 33.8771C19.6389 33.9301 19.6409 33.983 19.6429 34.036C19.646 34.1167 19.6491 34.1974 19.6523 34.2782C19.6543 34.3299 19.6563 34.3816 19.6582 34.4333C19.6592 34.4572 19.6601 34.4811 19.6611 34.5058C19.6658 34.6315 19.6684 34.7569 19.6675 34.8827C19.6216 34.8598 19.6216 34.8598 19.6018 34.8117C19.5952 34.7904 19.5885 34.7692 19.5817 34.7473C19.5741 34.7232 19.5665 34.6991 19.5587 34.6742C19.5505 34.6477 19.5424 34.6213 19.534 34.594C19.5254 34.5665 19.5168 34.539 19.5079 34.5107C19.4848 34.4369 19.4619 34.3631 19.439 34.2893C19.4076 34.1881 19.3759 34.087 19.3443 33.9859C19.3264 33.9284 19.3084 33.871 19.2905 33.8135C19.244 33.6643 19.197 33.5153 19.1489 33.3666C19.1441 33.3517 19.1392 33.3367 19.1342 33.3213C19.1111 33.2496 19.0878 33.178 19.0644 33.1064C19.0521 33.0685 19.0521 33.0685 19.0395 33.0298C19.0322 33.0075 19.025 32.9852 19.0175 32.9623C19.002 32.9091 19.002 32.9091 19.002 32.8632C18.9892 32.8611 18.9765 32.859 18.9633 32.8568C18.7846 32.8245 18.6145 32.7704 18.4426 32.7126C18.4274 32.7075 18.4123 32.7025 18.3968 32.6973C18.1315 32.6082 17.8756 32.506 17.625 32.3813C17.608 32.3729 17.591 32.3645 17.5735 32.3559C17.3508 32.2452 17.1418 32.1202 16.9377 31.978C16.8867 31.9425 16.8354 31.9073 16.784 31.8722C16.4155 31.6184 16.0545 31.353 15.7161 31.0599C15.6554 31.0078 15.5935 30.9579 15.5309 30.9082C15.2765 30.7007 15.0434 30.4669 14.8109 30.2355C14.7889 30.2137 14.7889 30.2137 14.7665 30.1914C14.6667 30.0913 14.5731 29.9869 14.481 29.8798C14.4592 29.855 14.4373 29.8301 14.4155 29.8053C13.8329 29.1377 13.3043 28.3618 12.9663 27.539C12.8379 27.5525 12.7143 27.5759 12.5882 27.6036C11.9203 27.7486 11.2074 27.7631 10.6025 27.4013C10.5305 27.3511 10.4631 27.2971 10.396 27.2406C10.3728 27.2231 10.3496 27.2056 10.3257 27.1876C9.11323 26.0783 9.06566 23.1962 8.92599 21.6846C8.92317 21.6542 8.92317 21.6542 8.92029 21.6232C8.89427 21.334 8.87768 21.0461 8.87669 20.7557C8.87659 20.7331 8.87659 20.7331 8.87649 20.71C8.87615 20.6301 8.87593 20.5503 8.87583 20.4705C8.87573 20.4057 8.87541 20.3409 8.87489 20.2761C8.8703 19.6927 8.87107 19.1278 9.22559 18.6347C9.25044 18.5992 9.25044 18.5992 9.27579 18.563C9.51802 18.29 9.86064 18.1459 10.2124 18.0839C10.2376 18.0794 10.2376 18.0794 10.2633 18.0748C10.8214 17.9953 11.4282 18.1143 11.9565 18.2904C11.9572 18.2653 11.9579 18.2401 11.9585 18.2142C11.9672 17.8863 11.9761 17.5584 11.9852 17.2305C11.986 17.2039 11.9867 17.1773 11.9875 17.1499C12.012 16.2701 12.0442 15.3908 12.085 14.5116C12.0889 14.4261 12.0928 14.3406 12.0967 14.255C12.0994 14.1978 12.1022 14.1405 12.105 14.0833C12.1091 13.9966 12.1125 13.9098 12.1154 13.823C12.1166 13.7855 12.1181 13.748 12.1196 13.7106C12.1219 13.651 12.1235 13.5914 12.1249 13.5317C12.1257 13.5135 12.1265 13.4953 12.1274 13.4765C12.1287 13.3831 12.1263 13.3455 12.0682 13.2687C12.0154 13.2263 11.9609 13.1899 11.9036 13.154C11.8296 13.1023 11.7683 13.0368 11.7052 12.9726C11.6847 12.9521 11.6847 12.9521 11.6638 12.9311C11.6358 12.9031 11.6079 12.875 11.58 12.8468C11.5376 12.804 11.495 12.7614 11.4524 12.7188C11.3173 12.5833 11.1846 12.4473 11.0615 12.3007C11.0406 12.2765 11.0196 12.2522 10.9987 12.228C10.8834 12.0928 10.7718 11.9559 10.6645 11.8143C10.6004 11.7299 10.5335 11.6485 10.4648 11.5678C9.77395 10.7439 9.39134 9.73282 9.45508 8.65177C9.58096 7.23645 10.1184 6.02716 11.2222 5.09464C12.7261 3.84683 14.7429 3.13663 16.6927 3.13966ZM13.7465 14.7305C13.6012 14.8805 13.6069 15.0381 13.6003 15.2396C13.5997 15.2571 13.599 15.2747 13.5984 15.2927C13.5963 15.3505 13.5943 15.4084 13.5924 15.4662C13.5909 15.5074 13.5895 15.5486 13.588 15.5898C13.585 15.6766 13.582 15.7634 13.579 15.8502C13.5753 15.9583 13.5715 16.0665 13.5677 16.1746C13.5593 16.4109 13.5514 16.6471 13.5439 16.8834C13.5415 16.9597 13.539 17.0361 13.5364 17.1125C13.5082 17.9387 13.5128 18.7656 13.5128 19.5921C13.5128 19.7361 13.5126 19.8801 13.5124 20.0241C13.463 23.2598 13.463 23.2598 15.4907 28.6635C15.5009 28.6761 15.5112 28.6888 15.5217 28.7018C15.6948 28.9143 15.8857 29.1091 16.0788 29.3032C16.0909 29.3155 16.1031 29.3277 16.1156 29.3404C16.2745 29.5005 16.4385 29.6474 16.6152 29.788C16.641 29.8097 16.6667 29.8316 16.6922 29.8537C17.0018 30.1215 17.3346 30.3585 17.6709 30.5912C17.6879 30.6031 17.7049 30.6149 17.7224 30.6271C17.9563 30.7897 18.1906 30.9344 18.4512 31.0502C18.4678 31.0577 18.4843 31.0651 18.5014 31.0728C20.2956 31.8645 22.6548 32.0385 26.908 31.5408C26.9236 31.5375 26.9393 31.5343 26.9555 31.531C27.3133 31.4681 27.3133 31.4681 27.6538 31.3486C27.6538 31.3334 27.6538 31.3183 27.6538 31.3027C27.6747 31.3015 27.6956 31.3003 27.7172 31.2991C28.4414 31.2357 29.083 30.782 29.6504 30.3617C29.6696 30.3476 29.6888 30.3335 29.7086 30.3189C29.9345 30.1524 30.1561 29.9836 30.3676 29.799C30.3982 29.7731 30.4295 29.7479 30.4609 29.723C30.6327 29.5866 30.788 29.4378 30.9424 29.2823C30.9843 29.2402 31.0264 29.1983 31.0685 29.1565C31.226 28.9992 31.3718 28.8387 31.5093 28.6635C31.5331 28.6344 31.5569 28.6054 31.5808 28.5764C32.9099 26.9478 33.314 24.9692 33.4298 22.9233C33.4312 22.8987 33.4326 22.8741 33.4341 22.8488C33.4707 22.1925 33.4866 21.5374 33.4867 20.8803C33.4868 20.8233 33.4868 20.7662 33.4869 20.7092C33.4871 20.507 33.4872 20.3047 33.4872 20.1025C33.4872 19.9395 33.4873 19.7764 33.4876 19.6134C33.4893 18.7682 33.4871 17.9232 33.4665 17.0782C33.4653 17.0255 33.4642 16.9728 33.4631 16.9201C33.452 16.3865 33.3986 15.872 33.2652 15.3542C33.2528 15.3045 33.2415 15.2547 33.2304 15.2047C33.2228 15.1715 33.2151 15.1383 33.2075 15.1052C33.201 15.0759 33.1944 15.0467 33.1876 15.0166C33.1302 14.8471 32.9883 14.7705 32.8375 14.6903C32.5862 14.5755 32.3734 14.5819 32.1081 14.6371C31.8071 14.6955 31.5044 14.727 31.1995 14.7577C31.1413 14.7637 31.0831 14.7696 31.0249 14.7756C29.6293 14.9176 28.2305 14.9773 26.8276 14.9628C26.808 14.9626 26.7884 14.9624 26.7682 14.9622C25.3543 14.9472 23.9418 14.8628 22.5356 14.7154C22.5175 14.7135 22.4995 14.7116 22.481 14.7097C22.4477 14.7062 22.4145 14.7027 22.3812 14.6991C22.3097 14.6915 22.241 14.6874 22.1689 14.6874C22.1645 14.7029 22.1601 14.7184 22.1555 14.7344C22.1465 14.7651 22.1465 14.7651 22.1374 14.7964C22.1315 14.8167 22.1257 14.8369 22.1196 14.8577C22.1001 14.9169 22.1001 14.9169 22.0764 14.9605C21.7796 15.6045 22.1412 16.6147 22.3637 17.2279C22.4014 17.33 22.4389 17.4313 22.4851 17.5299C22.5173 17.6126 22.5224 17.677 22.5218 17.7655C22.522 17.7925 22.5221 17.8196 22.5223 17.8474C22.5099 17.9504 22.4765 18.0076 22.4018 18.0783C22.2927 18.1415 22.1742 18.1346 22.0542 18.1069C21.6963 17.9811 21.3646 17.7669 21.0412 17.5723C20.9786 17.5349 20.9157 17.4983 20.8526 17.4619C20.5948 17.3123 20.3589 17.1456 20.1265 16.9594C20.1054 16.9429 20.0843 16.9264 20.0625 16.9095C20.0067 16.8656 19.9518 16.8209 19.897 16.7758C19.8744 16.7575 19.8519 16.7392 19.8287 16.7204C19.6527 16.5753 19.4892 16.4188 19.3275 16.258C19.3076 16.2382 19.2876 16.2184 19.267 16.1981C19.1307 16.0611 19.0078 15.9168 18.8872 15.766C18.8674 15.7425 18.8475 15.719 18.8273 15.6957C18.8111 15.6768 18.7949 15.6579 18.7782 15.6384C18.7598 15.6172 18.7414 15.5961 18.7225 15.5743C18.6738 15.5149 18.6367 15.4547 18.6006 15.387C18.4875 15.1829 18.4875 15.1829 18.3003 15.0552C18.158 15.0282 18.0155 15.0332 17.8715 15.0406C17.7914 15.0446 17.7115 15.0463 17.6313 15.0472C17.5247 15.0484 17.4182 15.0504 17.3117 15.0529C17.1242 15.0562 16.9394 15.0457 16.7529 15.0274C16.7378 15.0259 16.7227 15.0245 16.7071 15.023C16.0272 14.9565 15.3781 14.8323 14.746 14.5688C14.3517 14.4062 14.0689 14.4282 13.7465 14.7305ZM10.4648 19.6215C10.4116 19.8428 10.4108 20.0624 10.4118 20.2885C10.4118 20.3084 10.4119 20.3283 10.4119 20.3489C10.418 21.8984 10.4384 24.7326 11.3828 26.0473C11.6042 26.1964 11.9102 26.1571 12.1599 26.1084C12.1794 26.1044 12.1989 26.1003 12.219 26.0961C12.2382 26.0921 12.2573 26.0881 12.2771 26.084C12.3236 26.0735 12.3697 26.0606 12.4155 26.0473C12.4489 25.9805 12.4276 25.9414 12.4096 25.8695C12.4029 25.8417 12.3961 25.8139 12.3892 25.7852C12.3855 25.7703 12.3819 25.7553 12.3781 25.7399C12.1771 24.9094 12.1096 24.0566 12.0569 23.2059C12.0548 23.1711 12.0548 23.1711 12.0526 23.1357C12.0097 22.4357 11.9942 21.7355 11.9796 21.0344C11.977 20.911 11.9744 20.7876 11.9717 20.6642C11.9666 20.4237 11.9616 20.1833 11.9565 19.9428C11.8866 19.9168 11.8166 19.8908 11.7465 19.8649C11.717 19.8539 11.717 19.8539 11.6868 19.8427C11.5568 19.7946 11.4272 19.7506 11.2924 19.7176C11.2654 19.7108 11.2654 19.7108 11.2377 19.7038C10.9756 19.6391 10.7341 19.6149 10.4648 19.6215ZM35.0435 19.9428C35.043 19.9669 35.0425 19.991 35.042 20.0158C34.9582 24.2731 34.9582 24.2731 34.6074 25.8178C34.5984 25.8583 34.5894 25.8988 34.5804 25.9393C34.5711 25.9814 34.5711 25.9814 34.5615 26.0243C34.8441 26.1271 35.2014 26.2114 35.4967 26.1104C35.6315 26.0378 35.6844 25.9495 35.7377 25.8092C35.7445 25.7913 35.7513 25.7735 35.7582 25.7551C36.3596 24.1108 36.5855 22.1243 36.5853 20.3841C36.5854 20.3239 36.5858 20.2636 36.5862 20.2034C36.5868 20.005 36.5838 19.8153 36.5352 19.6215C36.0263 19.5937 35.5075 19.7423 35.0435 19.9428ZM18.6118 36.8105C18.5528 36.9726 18.494 37.1347 18.4353 37.2969C18.4153 37.3521 18.3953 37.4073 18.3752 37.4625C18.3464 37.5417 18.3177 37.6209 18.2891 37.7002C18.2801 37.7249 18.271 37.7497 18.2617 37.7752C18.2493 37.8096 18.2493 37.8096 18.2367 37.8448C18.2293 37.865 18.222 37.8852 18.2144 37.9061C18.1954 37.9599 18.1954 37.9599 18.1987 38.0268C18.2426 38.0625 18.2426 38.0625 18.302 38.0956C18.4124 38.1629 18.5198 38.233 18.6262 38.3065C18.6417 38.3172 18.6573 38.328 18.6733 38.339C18.7217 38.3726 18.77 38.4062 18.8184 38.4399C18.8419 38.4562 18.8419 38.4562 18.8659 38.473C19.1288 38.6563 19.3873 38.8454 19.6445 39.0365C19.6613 39.049 19.6781 39.0614 19.6954 39.0742C19.889 39.2177 20.0796 39.3634 20.2642 39.5185C20.276 39.5284 20.2879 39.5383 20.3001 39.5485C20.4484 39.6724 20.5948 39.798 20.7377 39.9282C20.7726 39.9599 20.8079 39.9914 20.8434 40.0225C20.974 40.1372 21.0978 40.2579 21.2209 40.3805C21.2372 40.3968 21.2536 40.413 21.2704 40.4298C21.363 40.5226 21.4511 40.6179 21.5367 40.7172C21.5808 40.7675 21.6275 40.8144 21.6755 40.861C21.7508 40.9354 21.8214 41.0118 21.8902 41.0921C21.9586 41.1696 22.0294 41.2447 22.1001 41.32C22.1965 41.4228 22.2921 41.5258 22.384 41.6327C22.4291 41.6846 22.4755 41.7353 22.5218 41.7861C22.5927 41.8646 22.6606 41.9447 22.7269 42.0271C22.8052 42.124 22.8871 42.2159 22.9722 42.3068C23.0761 42.4178 23.1741 42.5319 23.2694 42.6505C23.3364 42.733 23.4064 42.8127 23.4771 42.892C23.5646 42.8573 23.6063 42.8064 23.6635 42.7328C23.7553 42.6174 23.8517 42.5081 23.9515 42.3995C24.0456 42.2968 24.1368 42.1916 24.2269 42.0854C24.3554 41.9343 24.4859 41.7859 24.621 41.6407C24.6811 41.5762 24.7404 41.5114 24.7981 41.4448C24.8947 41.3332 24.9949 41.225 25.0949 41.1165C25.1304 41.078 25.1658 41.0393 25.2012 41.0007C25.3076 40.8847 25.4143 40.7695 25.5269 40.6594C25.5656 40.6198 25.6016 40.5788 25.6375 40.5367C25.7309 40.4293 25.8303 40.3288 25.9312 40.2285C25.9573 40.2022 25.9573 40.2022 25.984 40.1754C26.0932 40.0664 26.2057 39.9631 26.3228 39.8627C26.3501 39.8387 26.3774 39.8147 26.4047 39.7906C26.5808 39.6363 26.76 39.4874 26.9456 39.3447C26.9907 39.3101 27.0357 39.2752 27.0806 39.2404C27.3139 39.0602 27.5514 38.8863 27.7915 38.7153C27.8158 38.6979 27.8158 38.6979 27.8406 38.6802C28.03 38.5452 28.2208 38.4123 28.4126 38.2807C28.4303 38.2684 28.4481 38.2562 28.4663 38.2437C28.5763 38.1685 28.6877 38.0964 28.8013 38.0268C28.7864 37.9122 28.7538 37.8114 28.714 37.7038C28.7077 37.6862 28.7013 37.6687 28.6947 37.6506C28.6744 37.5948 28.6539 37.539 28.6335 37.4832C28.62 37.4461 28.6065 37.4091 28.593 37.3721C28.5611 37.2845 28.5291 37.197 28.4971 37.1096C28.4606 37.0099 28.4244 36.9102 28.3882 36.8105C28.3205 36.8764 28.2705 36.9388 28.2218 37.0199C28.1408 37.1497 28.0509 37.2675 27.9521 37.3842C27.9281 37.413 27.9281 37.413 27.9035 37.4423C27.5721 37.8251 27.1638 38.0335 26.6899 38.1874C26.6707 38.1937 26.6515 38.2001 26.6316 38.2066C25.9032 38.4417 25.1462 38.5735 24.3921 38.6942C24.3533 38.7004 24.3533 38.7004 24.3137 38.7068C24.2652 38.7145 24.2167 38.7222 24.1682 38.7297C24.0718 38.745 23.9771 38.7613 23.8827 38.7863C23.7574 38.8171 23.6369 38.8146 23.5086 38.8142C23.4712 38.8148 23.4712 38.8148 23.433 38.8153C23.2728 38.8154 23.1286 38.7949 22.9729 38.7584C22.8629 38.7334 22.7517 38.7161 22.6403 38.6986C22.5959 38.6915 22.5515 38.6844 22.507 38.6774C22.4842 38.6737 22.4613 38.6701 22.4378 38.6664C21.7202 38.5515 21.0017 38.4145 20.3101 38.1874C20.2906 38.1811 20.2712 38.1748 20.2511 38.1683C19.5997 37.9532 19.1463 37.5827 18.7684 37.0102C18.7434 36.9724 18.7434 36.9724 18.718 36.9338C18.7026 36.9103 18.6873 36.8868 18.6715 36.8626C18.6594 36.8454 18.6473 36.8282 18.6348 36.8105C18.6272 36.8105 18.6196 36.8105 18.6118 36.8105Z" fill="#0F55B2"/>
<path d="M19.5739 20.4836C19.5897 20.4958 19.6056 20.5081 19.6219 20.5207C20.1195 20.9113 20.3787 21.4609 20.4581 22.0821C20.4622 22.1187 20.4663 22.1553 20.4703 22.1919C20.4723 22.2086 20.4743 22.2253 20.4764 22.2425C20.5071 22.5192 20.4877 22.7931 20.466 23.0697C20.4647 23.0871 20.4635 23.1045 20.4621 23.1225C20.4383 23.4349 20.3971 23.7566 20.2466 24.0364C20.2387 24.0516 20.2308 24.0668 20.2226 24.0824C20.1515 24.2148 20.0674 24.3303 19.9655 24.4409C19.9477 24.4605 19.93 24.48 19.9118 24.5002C19.7155 24.7069 19.504 24.8405 19.2311 24.9228C19.2185 24.9269 19.2059 24.9309 19.193 24.9351C19.1154 24.9506 19.0381 24.95 18.9593 24.9504C18.9417 24.9506 18.9242 24.9507 18.9061 24.9508C18.8689 24.9511 18.8317 24.9512 18.7945 24.9513C18.7385 24.9515 18.6825 24.9522 18.6265 24.953C18.2238 24.9557 17.8822 24.8725 17.5842 24.5845C17.5673 24.5674 17.5503 24.5503 17.5328 24.5327C17.5185 24.5194 17.5041 24.5061 17.4894 24.4924C17.1038 24.1042 17.0254 23.4207 17.0222 22.9033C17.0263 22.1541 17.2582 21.4029 17.7824 20.8537C17.9537 20.6885 18.1511 20.5831 18.3638 20.4802C18.4212 20.4511 18.4744 20.4197 18.5283 20.3846C18.8579 20.1726 19.28 20.2531 19.5739 20.4836Z" fill="#0F55B2"/>
<path d="M29.2978 20.0004C29.3336 20.0036 29.3336 20.0036 29.3702 20.0068C29.684 20.0397 29.9545 20.1311 30.2014 20.3331C30.2217 20.3478 30.2421 20.3625 30.2631 20.3776C30.7982 20.8549 31.0421 21.6341 31.0964 22.3297C31.1232 22.9898 31.0561 23.6996 30.5915 24.2116C30.5779 24.227 30.5644 24.2424 30.5504 24.2583C30.2992 24.5271 29.9568 24.7012 29.5867 24.7211C29.1608 24.729 28.8246 24.6138 28.5031 24.3263C28.477 24.303 28.477 24.303 28.4503 24.2792C27.9703 23.8258 27.7182 23.1112 27.6943 22.4612C27.6806 21.7874 27.8185 21.0682 28.2278 20.5167C28.2424 20.4968 28.257 20.4769 28.272 20.4564C28.4615 20.2091 28.6512 20.0504 28.9615 19.9971C29.075 19.9837 29.1843 19.9901 29.2978 20.0004Z" fill="#0F55B2"/>
<path d="M26.5144 26.1818C26.6136 26.3103 26.6315 26.4305 26.6296 26.5876C26.6296 26.6152 26.6296 26.6152 26.6296 26.6434C26.6296 26.6823 26.6294 26.7211 26.629 26.76C26.6284 26.8184 26.6285 26.8769 26.6287 26.9353C26.6277 27.4936 26.4967 27.9599 26.0934 28.3653C26.0782 28.3813 26.063 28.3973 26.0473 28.4139C25.6653 28.7878 25.0528 28.906 24.5472 29.0064C24.5213 29.0116 24.5213 29.0116 24.4948 29.0168C23.6441 29.1839 22.6996 29.1346 21.9584 28.6424C21.5794 28.3636 21.2154 28.0244 21.1364 27.5391C21.1169 27.3251 21.1105 27.1099 21.1077 26.8951C21.1072 26.8752 21.1067 26.8553 21.1062 26.8347C21.1054 26.6752 21.1296 26.5461 21.2354 26.4203C21.3927 26.2886 21.4907 26.2605 21.6954 26.2668C21.8298 26.283 21.9073 26.3272 21.9947 26.4291C22.0886 26.5641 22.0933 26.6822 22.0931 26.8434C22.0942 26.8926 22.0954 26.9417 22.0968 26.9908C22.0973 27.0142 22.0978 27.0376 22.0984 27.0617C22.1052 27.2947 22.1345 27.4628 22.3068 27.6309C22.6789 27.9792 23.2468 28.1309 23.7514 28.1185C24.2369 28.0793 24.7526 27.9653 25.1984 27.7686C25.2297 27.7553 25.2297 27.7553 25.2616 27.7417C25.4315 27.66 25.5156 27.5226 25.5842 27.3512C25.6264 27.2159 25.6373 27.0901 25.6369 26.9491C25.6372 26.915 25.6375 26.8808 25.6379 26.8466C25.6384 26.7934 25.6387 26.7403 25.6385 26.6871C25.6371 26.3305 25.6371 26.3305 25.7579 26.1761C25.9741 25.9614 26.2976 25.9857 26.5144 26.1818Z" fill="#0F55B2"/>
</svg>
